<mxfile host="www.draw.io" modified="2019-11-16T06:21:09.820Z" agent="Mozilla/5.0 (Macintosh; Intel Mac OS X 10_14_6) AppleWebKit/605.1.15 (KHTML, like Gecko) Version/13.0.2 Safari/605.1.15" etag="9IMwobU1YFk0Kn6n127q" version="12.2.6" type="github" pages="1">
  <diagram id="k8OLnsGlDKxbJWMBHYF1" name="Page-1">
    <mxGraphModel dx="932" dy="569" grid="0" gridSize="10" guides="1" tooltips="1" connect="1" arrows="1" fold="1" page="1" pageScale="1" pageWidth="3300" pageHeight="4681" math="0" shadow="0">
      <root>
        <mxCell id="0"/>
        <mxCell id="1" parent="0"/>
        <mxCell id="F41EWTa4XXkvH_6PJZ7q-1" style="edgeStyle=orthogonalEdgeStyle;rounded=0;orthogonalLoop=1;jettySize=auto;html=1;exitX=0.665;exitY=1.014;exitDx=0;exitDy=0;entryX=0.25;entryY=0;entryDx=0;entryDy=0;strokeColor=#b85450;strokeWidth=2;fontSize=10;exitPerimeter=0;fillColor=#f8cecc;" parent="1" target="F41EWTa4XXkvH_6PJZ7q-11" edge="1">
          <mxGeometry relative="1" as="geometry">
            <Array as="points">
              <mxPoint x="248.5" y="257"/>
            </Array>
            <mxPoint x="250.5" y="257" as="sourcePoint"/>
          </mxGeometry>
        </mxCell>
        <mxCell id="F41EWTa4XXkvH_6PJZ7q-2" value="" style="edgeStyle=orthogonalEdgeStyle;rounded=0;orthogonalLoop=1;jettySize=auto;html=1;strokeWidth=2;fillColor=#dae8fc;strokeColor=#6c8ebf;" parent="1" source="F41EWTa4XXkvH_6PJZ7q-3" target="F41EWTa4XXkvH_6PJZ7q-40" edge="1">
          <mxGeometry relative="1" as="geometry"/>
        </mxCell>
        <mxCell id="F41EWTa4XXkvH_6PJZ7q-3" value="区块链服务平台" style="rounded=0;whiteSpace=wrap;html=1;fontSize=16;fillColor=#dae8fc;strokeColor=#6c8ebf;" parent="1" vertex="1">
          <mxGeometry x="42.5" y="178" width="313" height="70" as="geometry"/>
        </mxCell>
        <mxCell id="F41EWTa4XXkvH_6PJZ7q-4" value="U链福费廷业务应用" style="rounded=0;whiteSpace=wrap;html=1;fontSize=16;fillColor=#ffe6cc;strokeColor=#d79b00;" parent="1" vertex="1">
          <mxGeometry x="40" y="40" width="181" height="60" as="geometry"/>
        </mxCell>
        <mxCell id="F41EWTa4XXkvH_6PJZ7q-5" value="U链托管业务应用" style="rounded=0;whiteSpace=wrap;html=1;fontSize=16;fillColor=#ffe6cc;strokeColor=#d79b00;" parent="1" vertex="1">
          <mxGeometry x="234" y="40" width="181" height="60" as="geometry"/>
        </mxCell>
        <mxCell id="F41EWTa4XXkvH_6PJZ7q-6" value="企业数据总线" style="rounded=0;whiteSpace=wrap;html=1;fontSize=16;fillColor=#f8cecc;strokeColor=#b85450;" parent="1" vertex="1">
          <mxGeometry x="52" y="329" width="148" height="60" as="geometry"/>
        </mxCell>
        <mxCell id="F41EWTa4XXkvH_6PJZ7q-7" style="edgeStyle=orthogonalEdgeStyle;rounded=0;orthogonalLoop=1;jettySize=auto;html=1;exitX=0.5;exitY=1;exitDx=0;exitDy=0;strokeColor=#b85450;strokeWidth=2;fontSize=10;fillColor=#f8cecc;" parent="1" source="F41EWTa4XXkvH_6PJZ7q-8" target="F41EWTa4XXkvH_6PJZ7q-12" edge="1">
          <mxGeometry relative="1" as="geometry"/>
        </mxCell>
        <mxCell id="F41EWTa4XXkvH_6PJZ7q-8" value="企业服务总线" style="rounded=0;whiteSpace=wrap;html=1;fontSize=16;fillColor=#f8cecc;strokeColor=#b85450;" parent="1" vertex="1">
          <mxGeometry x="370" y="329" width="148" height="60" as="geometry"/>
        </mxCell>
        <mxCell id="F41EWTa4XXkvH_6PJZ7q-9" style="edgeStyle=orthogonalEdgeStyle;rounded=0;orthogonalLoop=1;jettySize=auto;html=1;exitX=1;exitY=0.5;exitDx=0;exitDy=0;entryX=0.5;entryY=1;entryDx=0;entryDy=0;strokeColor=#b85450;strokeWidth=2;fontSize=10;fillColor=#f8cecc;" parent="1" source="F41EWTa4XXkvH_6PJZ7q-10" target="F41EWTa4XXkvH_6PJZ7q-11" edge="1">
          <mxGeometry relative="1" as="geometry"/>
        </mxCell>
        <mxCell id="F41EWTa4XXkvH_6PJZ7q-10" value="柜员管理系统" style="rounded=0;whiteSpace=wrap;html=1;fontSize=16;fillColor=#f8cecc;strokeColor=#b85450;" parent="1" vertex="1">
          <mxGeometry x="52" y="450" width="148" height="60" as="geometry"/>
        </mxCell>
        <mxCell id="F41EWTa4XXkvH_6PJZ7q-11" value="渠道管理平台" style="rounded=0;whiteSpace=wrap;html=1;fontSize=16;fillColor=#f8cecc;strokeColor=#b85450;" parent="1" vertex="1">
          <mxGeometry x="211" y="329" width="148" height="60" as="geometry"/>
        </mxCell>
        <mxCell id="F41EWTa4XXkvH_6PJZ7q-12" value="短信平台" style="rounded=0;whiteSpace=wrap;html=1;fontSize=16;fillColor=#f8cecc;strokeColor=#b85450;" parent="1" vertex="1">
          <mxGeometry x="370" y="450" width="148" height="60" as="geometry"/>
        </mxCell>
        <mxCell id="F41EWTa4XXkvH_6PJZ7q-13" value="" style="endArrow=none;startArrow=classic;html=1;strokeColor=#d79b00;strokeWidth=2;fontSize=16;entryX=0.75;entryY=1;entryDx=0;entryDy=0;fillColor=#ffe6cc;endFill=0;" parent="1" edge="1">
          <mxGeometry width="50" height="50" relative="1" as="geometry">
            <mxPoint x="183.5" y="172" as="sourcePoint"/>
            <mxPoint x="183.25" y="105" as="targetPoint"/>
          </mxGeometry>
        </mxCell>
        <mxCell id="F41EWTa4XXkvH_6PJZ7q-14" value="" style="endArrow=none;startArrow=classic;html=1;strokeColor=#d79b00;strokeWidth=2;fontSize=16;entryX=0.25;entryY=1;entryDx=0;entryDy=0;fillColor=#ffe6cc;endFill=0;" parent="1" edge="1">
          <mxGeometry width="50" height="50" relative="1" as="geometry">
            <mxPoint x="288.5" y="173" as="sourcePoint"/>
            <mxPoint x="288.25" y="105" as="targetPoint"/>
          </mxGeometry>
        </mxCell>
        <mxCell id="F41EWTa4XXkvH_6PJZ7q-15" value="发送交易" style="text;html=1;resizable=0;points=[];autosize=1;align=left;verticalAlign=top;spacingTop=-4;fontSize=10;" parent="1" vertex="1">
          <mxGeometry x="137" y="146.5" width="74" height="19" as="geometry"/>
        </mxCell>
        <mxCell id="F41EWTa4XXkvH_6PJZ7q-16" value="结果返回" style="text;html=1;resizable=0;points=[];autosize=1;align=left;verticalAlign=top;spacingTop=-4;fontSize=10;" parent="1" vertex="1">
          <mxGeometry x="138.5" y="116" width="58" height="12" as="geometry"/>
        </mxCell>
        <mxCell id="F41EWTa4XXkvH_6PJZ7q-17" value="发送交易" style="text;html=1;resizable=0;points=[];autosize=1;align=left;verticalAlign=top;spacingTop=-4;fontSize=10;" parent="1" vertex="1">
          <mxGeometry x="240.5" y="146.5" width="58" height="12" as="geometry"/>
        </mxCell>
        <mxCell id="F41EWTa4XXkvH_6PJZ7q-18" value="结果返回" style="text;html=1;resizable=0;points=[];autosize=1;align=left;verticalAlign=top;spacingTop=-4;fontSize=10;" parent="1" vertex="1">
          <mxGeometry x="240.5" y="116" width="58" height="12" as="geometry"/>
        </mxCell>
        <mxCell id="F41EWTa4XXkvH_6PJZ7q-19" value="" style="endArrow=classic;html=1;strokeColor=#b85450;strokeWidth=2;fontSize=10;entryX=0.5;entryY=1;entryDx=0;entryDy=0;exitX=0.5;exitY=0;exitDx=0;exitDy=0;fillColor=#f8cecc;" parent="1" source="F41EWTa4XXkvH_6PJZ7q-10" target="F41EWTa4XXkvH_6PJZ7q-6" edge="1">
          <mxGeometry width="50" height="50" relative="1" as="geometry">
            <mxPoint x="107.5" y="464" as="sourcePoint"/>
            <mxPoint x="157.5" y="414" as="targetPoint"/>
          </mxGeometry>
        </mxCell>
        <mxCell id="F41EWTa4XXkvH_6PJZ7q-20" value="柜员信息" style="text;html=1;resizable=0;points=[];autosize=1;align=left;verticalAlign=top;spacingTop=-4;fontSize=10;" parent="1" vertex="1">
          <mxGeometry x="68" y="418" width="58" height="12" as="geometry"/>
        </mxCell>
        <mxCell id="F41EWTa4XXkvH_6PJZ7q-21" value="批量" style="text;html=1;resizable=0;points=[];autosize=1;align=left;verticalAlign=top;spacingTop=-4;fontSize=10;" parent="1" vertex="1">
          <mxGeometry x="126" y="418" width="34" height="12" as="geometry"/>
        </mxCell>
        <mxCell id="F41EWTa4XXkvH_6PJZ7q-22" value="批量" style="text;html=1;resizable=0;points=[];autosize=1;align=left;verticalAlign=top;spacingTop=-4;fontSize=10;" parent="1" vertex="1">
          <mxGeometry x="57" y="305" width="34" height="12" as="geometry"/>
        </mxCell>
        <mxCell id="F41EWTa4XXkvH_6PJZ7q-23" value="登录授权验证" style="text;html=1;resizable=0;points=[];autosize=1;align=left;verticalAlign=top;spacingTop=-4;fontSize=10;" parent="1" vertex="1">
          <mxGeometry x="182.5" y="286.5" width="82" height="12" as="geometry"/>
        </mxCell>
        <mxCell id="F41EWTa4XXkvH_6PJZ7q-24" value="实时" style="text;html=1;resizable=0;points=[];autosize=1;align=left;verticalAlign=top;spacingTop=-4;fontSize=10;" parent="1" vertex="1">
          <mxGeometry x="247.5" y="280.5" width="34" height="12" as="geometry"/>
        </mxCell>
        <mxCell id="F41EWTa4XXkvH_6PJZ7q-25" value="" style="endArrow=classic;html=1;strokeColor=#b85450;strokeWidth=2;fontSize=10;exitX=0.75;exitY=1;exitDx=0;exitDy=0;entryX=0.25;entryY=0;entryDx=0;entryDy=0;fillColor=#f8cecc;" parent="1" target="F41EWTa4XXkvH_6PJZ7q-8" edge="1">
          <mxGeometry width="50" height="50" relative="1" as="geometry">
            <mxPoint x="277.25" y="256" as="sourcePoint"/>
            <mxPoint x="511.5" y="250" as="targetPoint"/>
          </mxGeometry>
        </mxCell>
        <mxCell id="F41EWTa4XXkvH_6PJZ7q-26" value="告警信息" style="text;html=1;resizable=0;points=[];autosize=1;align=left;verticalAlign=top;spacingTop=-4;fontSize=10;" parent="1" vertex="1">
          <mxGeometry x="313" y="262.5" width="58" height="12" as="geometry"/>
        </mxCell>
        <mxCell id="F41EWTa4XXkvH_6PJZ7q-27" value="实时" style="text;html=1;resizable=0;points=[];autosize=1;align=left;verticalAlign=top;spacingTop=-4;fontSize=10;" parent="1" vertex="1">
          <mxGeometry x="307.5" y="278" width="34" height="12" as="geometry"/>
        </mxCell>
        <mxCell id="F41EWTa4XXkvH_6PJZ7q-28" value="柜员信息" style="text;html=1;resizable=0;points=[];autosize=1;align=left;verticalAlign=top;spacingTop=-4;fontSize=10;" parent="1" vertex="1">
          <mxGeometry x="232.5" y="418" width="58" height="12" as="geometry"/>
        </mxCell>
        <mxCell id="F41EWTa4XXkvH_6PJZ7q-29" value="实时" style="text;html=1;resizable=0;points=[];autosize=1;align=left;verticalAlign=top;spacingTop=-4;fontSize=10;" parent="1" vertex="1">
          <mxGeometry x="290.5" y="418" width="34" height="12" as="geometry"/>
        </mxCell>
        <mxCell id="F41EWTa4XXkvH_6PJZ7q-30" value="实时" style="text;html=1;resizable=0;points=[];autosize=1;align=left;verticalAlign=top;spacingTop=-4;fontSize=10;" parent="1" vertex="1">
          <mxGeometry x="450.5" y="415" width="34" height="12" as="geometry"/>
        </mxCell>
        <mxCell id="F41EWTa4XXkvH_6PJZ7q-31" value="实时" style="text;html=1;resizable=0;points=[];autosize=1;align=center;verticalAlign=top;spacingTop=-4;" parent="1" vertex="1">
          <mxGeometry x="182.5" y="136" width="34" height="14" as="geometry"/>
        </mxCell>
        <mxCell id="F41EWTa4XXkvH_6PJZ7q-32" value="实时" style="text;html=1;resizable=0;points=[];autosize=1;align=left;verticalAlign=top;spacingTop=-4;" parent="1" vertex="1">
          <mxGeometry x="291.5" y="122" width="34" height="14" as="geometry"/>
        </mxCell>
        <mxCell id="F41EWTa4XXkvH_6PJZ7q-33" value="" style="endArrow=classic;html=1;entryX=0.293;entryY=1.017;entryDx=0;entryDy=0;entryPerimeter=0;strokeWidth=2;fillColor=#ffe6cc;strokeColor=#d79b00;" parent="1" edge="1">
          <mxGeometry width="50" height="50" relative="1" as="geometry">
            <mxPoint x="100.5" y="177" as="sourcePoint"/>
            <mxPoint x="100.5329999999999" y="106.01999999999998" as="targetPoint"/>
          </mxGeometry>
        </mxCell>
        <mxCell id="F41EWTa4XXkvH_6PJZ7q-34" value="事件接收" style="text;html=1;resizable=0;points=[];autosize=1;align=left;verticalAlign=top;spacingTop=-4;" parent="1" vertex="1">
          <mxGeometry x="48.5" y="134.5" width="58" height="14" as="geometry"/>
        </mxCell>
        <mxCell id="F41EWTa4XXkvH_6PJZ7q-35" value="异步" style="text;html=1;resizable=0;points=[];autosize=1;align=left;verticalAlign=top;spacingTop=-4;" parent="1" vertex="1">
          <mxGeometry x="100" y="138.5" width="34" height="14" as="geometry"/>
        </mxCell>
        <mxCell id="F41EWTa4XXkvH_6PJZ7q-36" value="" style="endArrow=classic;html=1;entryX=0.293;entryY=1.017;entryDx=0;entryDy=0;entryPerimeter=0;strokeWidth=2;fillColor=#ffe6cc;strokeColor=#d79b00;" parent="1" edge="1">
          <mxGeometry width="50" height="50" relative="1" as="geometry">
            <mxPoint x="342" y="176" as="sourcePoint"/>
            <mxPoint x="342.0329999999999" y="105.01999999999998" as="targetPoint"/>
          </mxGeometry>
        </mxCell>
        <mxCell id="F41EWTa4XXkvH_6PJZ7q-37" value="事件接收" style="text;html=1;resizable=0;points=[];autosize=1;align=left;verticalAlign=top;spacingTop=-4;" parent="1" vertex="1">
          <mxGeometry x="326.5" y="124.5" width="58" height="14" as="geometry"/>
        </mxCell>
        <mxCell id="F41EWTa4XXkvH_6PJZ7q-38" value="异步" style="text;html=1;resizable=0;points=[];autosize=1;align=left;verticalAlign=top;spacingTop=-4;" parent="1" vertex="1">
          <mxGeometry x="312.5" y="146.5" width="34" height="14" as="geometry"/>
        </mxCell>
        <mxCell id="F41EWTa4XXkvH_6PJZ7q-39" style="edgeStyle=orthogonalEdgeStyle;rounded=0;orthogonalLoop=1;jettySize=auto;html=1;exitX=0.5;exitY=1;exitDx=0;exitDy=0;fillColor=#f8cecc;strokeColor=#b85450;strokeWidth=2;" parent="1" target="F41EWTa4XXkvH_6PJZ7q-8" edge="1">
          <mxGeometry relative="1" as="geometry">
            <mxPoint x="444.5" y="257" as="sourcePoint"/>
          </mxGeometry>
        </mxCell>
        <mxCell id="F41EWTa4XXkvH_6PJZ7q-40" value="监控平台" style="rounded=0;whiteSpace=wrap;html=1;fillColor=#dae8fc;strokeColor=#6c8ebf;" parent="1" vertex="1">
          <mxGeometry x="384" y="179" width="120" height="70" as="geometry"/>
        </mxCell>
        <mxCell id="F41EWTa4XXkvH_6PJZ7q-41" value="&lt;span style=&quot;font-size: 10px&quot;&gt;告警信息&lt;/span&gt;" style="text;html=1;resizable=0;points=[];autosize=1;align=left;verticalAlign=top;spacingTop=-4;" parent="1" vertex="1">
          <mxGeometry x="442.5" y="274.5" width="50" height="14" as="geometry"/>
        </mxCell>
        <mxCell id="F41EWTa4XXkvH_6PJZ7q-42" value="&lt;span style=&quot;font-size: 10px&quot;&gt;实时&lt;/span&gt;" style="text;html=1;resizable=0;points=[];autosize=1;align=left;verticalAlign=top;spacingTop=-4;" parent="1" vertex="1">
          <mxGeometry x="420.5" y="290" width="30" height="14" as="geometry"/>
        </mxCell>
        <mxCell id="F41EWTa4XXkvH_6PJZ7q-43" value="监控&lt;br&gt;信息" style="text;html=1;resizable=0;points=[];autosize=1;align=center;verticalAlign=top;spacingTop=-4;fontSize=10;" parent="1" vertex="1">
          <mxGeometry x="354" y="184" width="30" height="24" as="geometry"/>
        </mxCell>
        <mxCell id="F41EWTa4XXkvH_6PJZ7q-44" value="" style="endArrow=classic;html=1;exitX=0.5;exitY=1;exitDx=0;exitDy=0;entryX=0.75;entryY=0;entryDx=0;entryDy=0;strokeWidth=2;strokeColor=#b85450;fillColor=#f8cecc;" parent="1" target="F41EWTa4XXkvH_6PJZ7q-11" edge="1">
          <mxGeometry width="50" height="50" relative="1" as="geometry">
            <mxPoint x="444" y="257" as="sourcePoint"/>
            <mxPoint x="556.5" y="269" as="targetPoint"/>
          </mxGeometry>
        </mxCell>
        <mxCell id="F41EWTa4XXkvH_6PJZ7q-45" value="登录授权验证" style="text;html=1;resizable=0;points=[];align=center;verticalAlign=middle;labelBackgroundColor=#ffffff;fontSize=10;" parent="F41EWTa4XXkvH_6PJZ7q-44" vertex="1" connectable="0">
          <mxGeometry x="-0.1149" y="-1" relative="1" as="geometry">
            <mxPoint x="8" y="-13.5" as="offset"/>
          </mxGeometry>
        </mxCell>
        <mxCell id="F41EWTa4XXkvH_6PJZ7q-46" value="实时" style="text;html=1;resizable=0;points=[];align=center;verticalAlign=middle;labelBackgroundColor=#ffffff;fontSize=10;" parent="F41EWTa4XXkvH_6PJZ7q-44" vertex="1" connectable="0">
          <mxGeometry x="-0.2365" y="4" relative="1" as="geometry">
            <mxPoint y="3" as="offset"/>
          </mxGeometry>
        </mxCell>
        <mxCell id="F41EWTa4XXkvH_6PJZ7q-47" style="edgeStyle=orthogonalEdgeStyle;rounded=0;orthogonalLoop=1;jettySize=auto;html=1;exitX=0.5;exitY=0;exitDx=0;exitDy=0;entryX=0.15;entryY=1;entryDx=0;entryDy=0;entryPerimeter=0;strokeColor=#6c8ebf;strokeWidth=2;fontSize=10;fillColor=#dae8fc;" parent="1" source="F41EWTa4XXkvH_6PJZ7q-49" target="F41EWTa4XXkvH_6PJZ7q-3" edge="1">
          <mxGeometry relative="1" as="geometry"/>
        </mxCell>
        <mxCell id="F41EWTa4XXkvH_6PJZ7q-48" style="edgeStyle=orthogonalEdgeStyle;rounded=0;orthogonalLoop=1;jettySize=auto;html=1;exitX=0.5;exitY=1;exitDx=0;exitDy=0;entryX=0.25;entryY=0;entryDx=0;entryDy=0;strokeColor=#b85450;strokeWidth=2;fontSize=10;fillColor=#f8cecc;" parent="1" source="F41EWTa4XXkvH_6PJZ7q-49" target="F41EWTa4XXkvH_6PJZ7q-6" edge="1">
          <mxGeometry relative="1" as="geometry"/>
        </mxCell>
        <mxCell id="F41EWTa4XXkvH_6PJZ7q-49" value="数据集成服务" style="rounded=0;whiteSpace=wrap;html=1;fontSize=10;fillColor=#dae8fc;strokeColor=#6c8ebf;" parent="1" vertex="1">
          <mxGeometry x="43.5" y="272" width="95" height="33" as="geometry"/>
        </mxCell>
        <mxCell id="F41EWTa4XXkvH_6PJZ7q-50" value="区块链服务平台系统" style="rounded=0;whiteSpace=wrap;html=1;fillColor=#dae8fc;strokeColor=#6c8ebf;" parent="1" vertex="1">
          <mxGeometry x="557" y="400" width="90" height="32" as="geometry"/>
        </mxCell>
        <mxCell id="F41EWTa4XXkvH_6PJZ7q-51" value="配套改造系统" style="rounded=0;whiteSpace=wrap;html=1;fillColor=#f8cecc;strokeColor=#b85450;" parent="1" vertex="1">
          <mxGeometry x="557" y="439" width="90" height="32" as="geometry"/>
        </mxCell>
        <mxCell id="F41EWTa4XXkvH_6PJZ7q-52" value="修改系统" style="rounded=0;whiteSpace=wrap;html=1;fillColor=#ffe6cc;strokeColor=#d79b00;" parent="1" vertex="1">
          <mxGeometry x="557" y="478" width="90" height="32" as="geometry"/>
        </mxCell>
      </root>
    </mxGraphModel>
  </diagram>
</mxfile>
